<svg width="368" height="64" viewBox="0 0 368 64" fill="none" xmlns="http://www.w3.org/2000/svg">
<path d="M42.8185 19.2773H32.7085C32.5238 17.9693 32.1468 16.8075 31.5774 15.7919C31.0081 14.7609 30.2771 13.8838 29.3846 13.1605C28.4921 12.4373 27.4611 11.8833 26.2915 11.4986C25.1374 11.1139 23.8833 10.9215 22.5291 10.9215C20.0824 10.9215 17.9511 11.5294 16.1353 12.745C14.3195 13.9453 12.9115 15.6996 11.9112 18.0078C10.911 20.3007 10.4109 23.0859 10.4109 26.3636C10.4109 29.7337 10.911 32.5651 11.9112 34.858C12.9268 37.1508 14.3426 38.882 16.1584 40.0515C17.9742 41.221 20.0747 41.8058 22.4599 41.8058C23.7987 41.8058 25.0374 41.6288 26.1761 41.2749C27.3303 40.9209 28.3536 40.4054 29.2461 39.7283C30.1386 39.0359 30.8773 38.1972 31.462 37.2124C32.0621 36.2275 32.4776 35.1042 32.7085 33.8423L42.8185 33.8885C42.5569 36.0582 41.9029 38.151 40.8565 40.1669C39.8255 42.1674 38.4329 43.9601 36.6786 45.5451C34.9397 47.1147 32.8623 48.3612 30.4464 49.2844C28.0458 50.1924 25.3298 50.6463 22.2983 50.6463C18.0819 50.6463 14.3118 49.6922 10.9879 47.7841C7.67945 45.8759 5.06345 43.1138 3.13991 39.4975C1.23177 35.8813 0.277699 31.5033 0.277699 26.3636C0.277699 21.2086 1.24716 16.8229 3.18608 13.2067C5.125 9.59043 7.75639 6.83594 11.0803 4.94318C14.4041 3.03504 18.1435 2.08096 22.2983 2.08096C25.0374 2.08096 27.5765 2.46567 29.9155 3.23508C32.2699 4.0045 34.355 5.12784 36.1708 6.60511C37.9866 8.067 39.4639 9.85973 40.6026 11.9833C41.7567 14.1069 42.4954 16.5382 42.8185 19.2773ZM49.801 50V14.5455H59.6341V50H49.801ZM54.7406 9.97514C53.2787 9.97514 52.0246 9.49041 50.9782 8.52095C49.9471 7.5361 49.4316 6.3589 49.4316 4.98934C49.4316 3.63518 49.9471 2.47337 50.9782 1.50391C52.0246 0.519056 53.2787 0.0266311 54.7406 0.0266311C56.2025 0.0266311 57.4489 0.519056 58.4799 1.50391C59.5263 2.47337 60.0495 3.63518 60.0495 4.98934C60.0495 6.3589 59.5263 7.5361 58.4799 8.52095C57.4489 9.49041 56.2025 9.97514 54.7406 9.97514ZM77.344 29.5028V50H67.5109V14.5455H76.8824V20.8008H77.2979C78.0827 18.7388 79.3983 17.1076 81.2449 15.9073C83.0915 14.6916 85.3305 14.0838 87.9619 14.0838C90.424 14.0838 92.5707 14.6224 94.4019 15.6996C96.2331 16.7768 97.6565 18.3156 98.6721 20.316C99.6878 22.3011 100.196 24.6709 100.196 27.4254V50H90.3625V29.1797C90.3779 27.0099 89.8239 25.3172 88.7006 24.1016C87.5772 22.8705 86.0307 22.255 84.061 22.255C82.7376 22.255 81.5681 22.5397 80.5525 23.109C79.5522 23.6784 78.7674 24.5094 78.1981 25.6019C77.6441 26.6791 77.3594 27.9794 77.344 29.5028ZM124.103 50.6925C120.456 50.6925 117.317 49.9538 114.686 48.4766C112.07 46.9839 110.054 44.8757 108.638 42.152C107.222 39.4129 106.514 36.1736 106.514 32.4343C106.514 28.7873 107.222 25.5865 108.638 22.832C110.054 20.0775 112.046 17.9309 114.616 16.392C117.202 14.8532 120.233 14.0838 123.711 14.0838C126.05 14.0838 128.227 14.4608 130.243 15.2148C132.274 15.9535 134.044 17.0691 135.552 18.5618C137.075 20.0545 138.26 21.9318 139.107 24.1939C139.953 26.4406 140.376 29.072 140.376 32.0881V34.7887H110.438V28.695H131.12C131.12 27.2792 130.812 26.0251 130.197 24.9325C129.581 23.84 128.727 22.9859 127.635 22.3704C126.558 21.7395 125.303 21.424 123.872 21.424C122.38 21.424 121.056 21.7702 119.902 22.4627C118.763 23.1398 117.871 24.0554 117.225 25.2095C116.578 26.3482 116.247 27.6178 116.232 29.0181V34.8118C116.232 36.5661 116.555 38.0818 117.202 39.359C117.863 40.6362 118.794 41.6211 119.994 42.3136C121.195 43.006 122.618 43.3523 124.265 43.3523C125.357 43.3523 126.358 43.1984 127.265 42.8906C128.173 42.5829 128.95 42.1212 129.597 41.5057C130.243 40.8902 130.735 40.1361 131.074 39.2436L140.169 39.8438C139.707 42.0289 138.76 43.937 137.329 45.5682C135.914 47.1839 134.082 48.4458 131.836 49.3537C129.604 50.2462 127.027 50.6925 124.103 50.6925ZM146.793 50V14.5455H156.165V20.8008H156.58C157.319 18.7234 158.55 17.0845 160.273 15.8842C161.997 14.6839 164.059 14.0838 166.459 14.0838C168.891 14.0838 170.96 14.6916 172.669 15.9073C174.377 17.1076 175.515 18.7388 176.085 20.8008H176.454C177.177 18.7695 178.485 17.1461 180.378 15.9304C182.286 14.6993 184.541 14.0838 187.141 14.0838C190.45 14.0838 193.135 15.1379 195.197 17.2461C197.274 19.3389 198.313 22.3088 198.313 26.1559V50H188.503V28.0948C188.503 26.1251 187.98 24.6478 186.933 23.663C185.887 22.6781 184.579 22.1857 183.009 22.1857C181.224 22.1857 179.832 22.7551 178.831 23.8938C177.831 25.0172 177.331 26.5021 177.331 28.3487V50H167.798V27.8871C167.798 26.1482 167.298 24.7633 166.298 23.7322C165.313 22.7012 164.013 22.1857 162.397 22.1857C161.304 22.1857 160.319 22.4627 159.442 23.0167C158.581 23.5553 157.896 24.317 157.388 25.3018C156.88 26.2713 156.626 27.41 156.626 28.718V50H146.793ZM216.19 50.6694C213.928 50.6694 211.912 50.277 210.143 49.4922C208.373 48.692 206.973 47.5148 205.942 45.9606C204.926 44.391 204.418 42.4367 204.418 40.0977C204.418 38.128 204.78 36.4737 205.503 35.1349C206.226 33.7962 207.211 32.719 208.458 31.9034C209.704 31.0878 211.12 30.4723 212.705 30.0568C214.305 29.6413 215.983 29.349 217.737 29.1797C219.799 28.9643 221.461 28.7642 222.723 28.5795C223.984 28.3795 224.9 28.0871 225.469 27.7024C226.039 27.3177 226.324 26.7483 226.324 25.9943V25.8558C226.324 24.3939 225.862 23.2629 224.939 22.4627C224.031 21.6625 222.738 21.2624 221.061 21.2624C219.291 21.2624 217.883 21.6548 216.837 22.4396C215.79 23.209 215.098 24.1785 214.759 25.348L205.665 24.6094C206.126 22.455 207.034 20.593 208.388 19.0234C209.743 17.4384 211.489 16.2228 213.628 15.3764C215.783 14.5147 218.275 14.0838 221.107 14.0838C223.077 14.0838 224.962 14.3146 226.762 14.7763C228.578 15.2379 230.186 15.9535 231.586 16.9229C233.002 17.8924 234.118 19.1388 234.933 20.6623C235.749 22.1703 236.157 23.9785 236.157 26.0866V50H226.831V45.0835H226.554C225.985 46.1914 225.223 47.1686 224.269 48.0149C223.315 48.8459 222.169 49.4999 220.83 49.9769C219.491 50.4386 217.945 50.6694 216.19 50.6694ZM219.006 43.8832C220.453 43.8832 221.73 43.5985 222.838 43.0291C223.946 42.4444 224.815 41.6596 225.446 40.6747C226.077 39.6899 226.393 38.5742 226.393 37.3278V33.5653C226.085 33.7654 225.662 33.95 225.123 34.1193C224.6 34.2732 224.008 34.4194 223.346 34.5579C222.684 34.681 222.022 34.7964 221.361 34.9041C220.699 34.9964 220.099 35.0811 219.56 35.158C218.406 35.3273 217.398 35.5966 216.537 35.9659C215.675 36.3352 215.005 36.8353 214.528 37.4663C214.051 38.0818 213.813 38.8512 213.813 39.7745C213.813 41.1133 214.298 42.1366 215.267 42.8445C216.252 43.5369 217.498 43.8832 219.006 43.8832Z" fill="white"/>
<path d="M243.97 50V2.72727H253.965V22.2319H274.254V2.72727H284.226V50H274.254V30.4723H253.965V50H243.97ZM315.018 34.9041V14.5455H324.851V50H315.41V43.56H315.041C314.24 45.6374 312.909 47.3071 311.047 48.5689C309.201 49.8307 306.946 50.4616 304.284 50.4616C301.914 50.4616 299.829 49.9231 298.029 48.8459C296.229 47.7687 294.82 46.2376 293.805 44.2525C292.805 42.2674 292.297 39.8899 292.281 37.12V14.5455H302.115V35.3658C302.13 37.4586 302.692 39.1128 303.8 40.3285C304.907 41.5442 306.392 42.152 308.254 42.152C309.439 42.152 310.547 41.8827 311.578 41.3441C312.609 40.7901 313.44 39.9745 314.071 38.8974C314.718 37.8202 315.033 36.4891 315.018 34.9041ZM332.716 63.2955V14.5455H342.411V20.5007H342.849C343.28 19.5466 343.903 18.5772 344.719 17.5923C345.55 16.5921 346.627 15.7611 347.95 15.0994C349.289 14.4223 350.951 14.0838 352.936 14.0838C355.521 14.0838 357.907 14.7609 360.092 16.1151C362.277 17.4538 364.023 19.4774 365.331 22.1857C366.639 24.8787 367.293 28.2564 367.293 32.3189C367.293 36.2737 366.655 39.6129 365.378 42.3366C364.116 45.045 362.392 47.0993 360.207 48.4996C358.037 49.8846 355.606 50.5771 352.913 50.5771C351.005 50.5771 349.381 50.2616 348.043 49.6307C346.719 48.9998 345.634 48.2073 344.788 47.2532C343.942 46.2837 343.295 45.3066 342.849 44.3217H342.549V63.2955H332.716ZM342.341 32.2727C342.341 34.3809 342.634 36.2198 343.218 37.7894C343.803 39.359 344.65 40.5824 345.758 41.4595C346.866 42.3213 348.212 42.7521 349.797 42.7521C351.397 42.7521 352.752 42.3136 353.859 41.4364C354.967 40.5439 355.806 39.3129 356.375 37.7433C356.96 36.1583 357.253 34.3348 357.253 32.2727C357.253 30.2261 356.968 28.4257 356.399 26.8714C355.829 25.3172 354.991 24.1016 353.883 23.2244C352.775 22.3473 351.413 21.9087 349.797 21.9087C348.197 21.9087 346.842 22.3319 345.734 23.1783C344.642 24.0246 343.803 25.2249 343.218 26.7791C342.634 28.3333 342.341 30.1645 342.341 32.2727Z" fill="#EB0101"/>
</svg>
